<?xml version="1.0" encoding="UTF-8"?><svg id="Layer_1" xmlns="http://www.w3.org/2000/svg" viewBox="0 0 377.53 103.1"><defs><style>.cls-1{fill:none;}.cls-2,.cls-3{fill:#ffe900;}.cls-3{fill-rule:evenodd;}</style></defs><path class="cls-1" d="M-16.21-99.35h305.15V156.65H-16.21V-99.35Z"/><path class="cls-2" d="M1.95.99h9.6v17.4h2.5V.99h9.6v42.5h-9.6v-17.2h-2.5v17.2H1.95V.99h0Z"/><path class="cls-2" d="M25.95.99h17.2v7.9h-7.6v9h7.3v7.9h-7.3v9.8h7.9v7.9h-17.5V.99h0Z"/><path class="cls-2" d="M45.25.99h9.6v34.6h7.5v7.9h-17.2V.99h.1Z"/><path class="cls-2" d="M64.05.99h9.6v34.6h7.5v7.9h-17.2V.99h.1Z"/><path class="cls-2" d="M82.75.94h15.1c4.2,0,6.6,2.3,6.6,6.6v15.5c0,4.2-2.3,6.6-6.6,6.6h-5.5v13.9h-9.6V1.04h0v-.1ZM93.95,21.64c.6,0,.8-.3.8-.8v-11.1c0-.6-.3-.8-.8-.8h-1.6v12.8h1.6v-.1Z"/><path class="cls-2" d="M106.35,37.19V7.29c0-4.2,2.3-6.6,6.6-6.6h8.5c4.2,0,6.6,2.3,6.6,6.6v29.9c0,4.2-2.3,6.6-6.6,6.6h-8.5c-4.2,0-6.6-2.3-6.6-6.6ZM117.55,35.89c.6,0,.8-.3.8-.8V9.59c0-.6-.3-.8-.8-.8h-.8c-.6,0-.8.3-.8.8v25.5c0,.6.3.8.8.8h.8Z"/><path class="cls-2" d="M130.25.94h15.1c4.2,0,6.6,2.3,6.6,6.6v29.4c0,4.2-2.3,6.6-6.6,6.6h-15.1V1.04h0v-.1ZM141.45,35.64c.6,0,.8-.3.8-.8V9.74c0-.6-.3-.8-.8-.8h-1.6v26.8h1.6v-.1Z"/><path class="cls-2" d="M166.7,37.19V7.29c0-4.2,2.3-6.6,6.6-6.6h8.5c4.2,0,6.6,2.3,6.6,6.6v13.1h-9.6v-10.9c0-.6-.3-.8-.8-.8h-.8c-.6,0-.8.3-.8.8v25.5c0,.6.3.8.8.8h.8c.6,0,.8-.3.8-.8v-10.9h9.6v13.1c0,4.2-2.3,6.6-6.6,6.6h-8.5c-4.2,0-6.6-2.3-6.6-6.6h0Z"/><path class="cls-2" d="M190.4,37.19V7.29c0-4.2,2.3-6.6,6.6-6.6h8.5c4.2,0,6.6,2.3,6.6,6.6v29.9c0,4.2-2.3,6.6-6.6,6.6h-8.5c-4.2,0-6.6-2.3-6.6-6.6ZM201.6,35.89c.6,0,.8-.3.8-.8V9.59c0-.6-.3-.8-.8-.8h-.8c-.6,0-.8.3-.8.8v25.5c0,.6.3.8.8.8h.8Z"/><path class="cls-2" d="M214.4.99h13.5l1.9,20.4,1.6-20.4h14.1v42.5h-9.6v-23.9l-2.7,23.9h-6.9l-2.7-23.9v23.9h-9V.99h-.2Z"/><path class="cls-2" d="M247.8.94h15.1c4.2,0,6.6,2.3,6.6,6.6v15.5c0,4.2-2.3,6.6-6.6,6.6h-5.5v13.9h-9.6V1.04h0v-.1ZM259.1,21.64c.6,0,.8-.3.8-.8v-11.1c0-.6-.3-.8-.8-.8h-1.6v12.8h1.6v-.1Z"/><path class="cls-2" d="M274.2.99h11.5l6.4,42.5h-9.6l-.5-5.4h-4.1l-.5,5.4h-9.6l6.4-42.5h0ZM281.4,30.29l-1.4-15.6-1.4,15.6h2.8,0Z"/><path class="cls-2" d="M292.8.99h9.6l3.3,12.3V.99h9.6v42.5h-9.6v-11.7l-3.3-12.3v24h-9.6V.99h0Z"/><path class="cls-2" d="M317.7.99h9.6v42.5h-9.6V.99h0Z"/><path class="cls-2" d="M329.5,37.19V7.29c0-4.2,2.3-6.6,6.6-6.6h8.5c4.2,0,6.6,2.3,6.6,6.6v29.9c0,4.2-2.3,6.6-6.6,6.6h-8.5c-4.2,0-6.6-2.3-6.6-6.6ZM340.8,35.89c.6,0,.8-.3.8-.8V9.59c0-.6-.3-.8-.8-.8h-.8c-.6,0-.8.3-.8.8v25.5c0,.6.3.8.8.8h.8Z"/><path class="cls-2" d="M353.5.99h9.6l3.3,12.3V.99h9.6v42.5h-9.6v-11.7l-3.3-12.3v24h-9.6V.99h0Z"/><path class="cls-3" d="M189.34,51.35h.2l19.4,6.5c.3,0,.4.3.4.5l-1.3,19.2v.3l6,6.1c.1.1.1.3,0,.4l-7.9,9.5c-.1.2-.4.3-.6.1l-4.6-1.9h0c-.3,0-.5.1-.6.4l-2.1,7.2c0,.2-.2.3-.3.3l-4.6,1.4c-2.5.8-5.1.8-7.5,0l-4.6-1.4c-.2,0-.3-.2-.3-.3l-2.1-7.2h0c-.1-.3-.5-.3-.7-.3l-4.6,1.9c-.2,0-.5,0-.6-.1l-7.9-9.5c-.1-.1,0-.3,0-.4l5.9-6c.1-.1.1-.3.1-.4l-1.3-19.1c0-.3.1-.5.4-.5l19.4-6.5h-.3l.1-.2ZM189.24,87.45l-3.2,4.6v.4l1.3,1c.1.1.3,0,.4,0l1.5-1.6h.3l1.5,1.6c.1.1.3.1.4,0l1.3-1c.1-.1.1-.3,0-.4l-3.2-4.6s-.1-.1-.3-.1-.1,0-.2.1h.2ZM200.74,75.95c-2.9.1-5.3,2.7-5.3,5.6s.8-2.6,5.5-2.5,5.5,5.4,5.5,2.4-2.6-5.6-5.8-5.5h.1ZM177.44,75.95c-2.8.2-5.1,2.8-5.1,5.6s1-2.1,5.4-2.3c4.8,0,5.6,5.1,5.6,2.1s-2.7-5.7-5.9-5.5h0v.1Z"/><path class="cls-3" d="M166.54,72.25c0,.2-.1.3-.3.3H39.37c-.2,0-.4,0-.5-.1l-11.7-11.8c-.1-.1,0-.2,0-.2h138.07c.2,0,.3.1.3.3l.8,11.5h.2Z"/><path class="cls-3" d="M160.44,82.95c-.1.1-.4.2-.5.2H47.27c-.2,0-.4,0-.5-.2l-5.6-6.6c-.1-.1,0-.2.1-.2h125.47c.2,0,.2.1,0,.2l-6.4,6.5.1.1Z"/><path class="cls-3" d="M164.64,91.55c.1.1,0,.3-.1.3h-77.27c-.2,0-.4-.1-.5-.2l-4-4.8c-.1-.1,0-.2.1-.2l77.77.2c.2,0,.4.1.5.3l3.5,4.6v-.2Z"/><path class="cls-3" d="M211.84,72.25c0,.2.1.3.3.3h126.45c.2,0,.4,0,.5-.1l11.7-11.8c.1-.1,0-.2,0-.2h-137.65c-.2,0-.3.1-.3.3l-.8,11.5h-.2Z"/><path class="cls-3" d="M217.94,82.95c.1.1.4.2.5.2h112.25c.2,0,.4,0,.5-.2l5.6-6.6c.1-.1,0-.2-.1-.2h-125.05c-.2,0-.2.1,0,.2l6.4,6.5-.1.1Z"/><path class="cls-3" d="M213.74,91.55c-.1.1,0,.3.1.3h76.85c.2,0,.4-.1.5-.2l4-4.8c.1-.1,0-.2-.1-.2l-77.35.2c-.2,0-.4.1-.5.3l-3.5,4.6v-.2Z"/></svg>